<?xml version="1.0" encoding="UTF-8"?>
<!DOCTYPE svg PUBLIC "-//W3C//DTD SVG 1.1//EN" "http://www.w3.org/Graphics/SVG/1.1/DTD/svg11.dtd">
<svg xmlns="http://www.w3.org/2000/svg" version="1.1" width="128px" height="128px" style="shape-rendering:geometricPrecision; text-rendering:geometricPrecision; image-rendering:optimizeQuality; fill-rule:evenodd; clip-rule:evenodd" xmlns:xlink="http://www.w3.org/1999/xlink">
<g><path style="opacity:0.686" fill="#000000" d="M 127.5,84.5 C 127.5,87.1667 127.5,89.8333 127.5,92.5C 126.481,94.5069 124.815,95.8402 122.5,96.5C 121.685,102.012 118.685,105.512 113.5,107C 102.847,107.296 92.6806,105.13 83,100.5C 80.063,107.275 76.7296,113.942 73,120.5C 67.8687,127.475 62.2021,128.142 56,122.5C 52.523,116.236 50.3563,109.569 49.5,102.5C 42.9581,104.931 36.2914,107.098 29.5,109C 25.1667,109.667 20.8333,109.667 16.5,109C 13.6367,107.636 11.6367,105.47 10.5,102.5C 6.42763,102.075 2.76096,100.742 -0.5,98.5C -0.5,95.5 -0.5,92.5 -0.5,89.5C 1.75084,85.5205 5.08417,82.6871 9.5,81C 14.3024,74.0313 19.9691,67.8646 26.5,62.5C 21.3588,57.1896 17.1922,51.1896 14,44.5C 9.36215,31.7466 13.6955,25.0799 27,24.5C 34.7984,24.8263 42.2984,26.493 49.5,29.5C 51.9827,21.8899 55.1493,14.5566 59,7.5C 62.5686,6.28793 65.4019,4.12126 67.5,1C 75.085,-1.14268 80.9183,1.02399 85,7.5C 85.8855,12.0716 84.7188,16.0716 81.5,19.5C 82.7653,22.7957 83.9319,26.129 85,29.5C 96.5676,23.5616 108.734,21.3949 121.5,23C 124.028,25.4088 125.361,28.4088 125.5,32C 124.387,40.3891 121.221,47.8891 116,54.5C 111.651,58.6816 107.485,63.0149 103.5,67.5C 105.984,70.4843 108.65,73.3176 111.5,76C 118.562,75.3663 123.895,78.1996 127.5,84.5 Z M 69.5,3.5 C 73.7532,2.98599 77.5866,3.98599 81,6.5C 83.2508,10.6664 82.4174,14.1664 78.5,17C 71.6944,19.4031 67.6944,16.9031 66.5,9.5C 66.6284,7.0452 67.6284,5.0452 69.5,3.5 Z M 62.5,8.5 C 63.8895,18.5669 69.5561,22.9002 79.5,21.5C 80.3739,24.7893 81.0405,28.1226 81.5,31.5C 76.5272,33.0668 71.6939,35.0668 67,37.5C 62.5629,35.0315 58.0629,32.6982 53.5,30.5C 54.9549,22.453 57.9549,15.1196 62.5,8.5 Z M 111.5,24.5 C 121.219,24.6928 124.386,29.3594 121,38.5C 116.259,49.2429 109.259,58.2429 100,65.5C 96.6325,61.7974 92.9658,58.464 89,55.5C 87.9317,48.3176 86.7651,41.1509 85.5,34C 88.0294,31.5916 91.0294,29.925 94.5,29C 100.253,27.3137 105.919,25.8137 111.5,24.5 Z M 21.5,27.5 C 30.8561,27.2379 39.8561,28.9045 48.5,32.5C 48.8333,33.3333 49.1667,34.1667 49.5,35C 48.6127,39.8237 47.7794,44.6571 47,49.5C 41.323,53.182 35.6563,56.8487 30,60.5C 23.8268,54.9762 19.1601,48.3095 16,40.5C 14.1016,34.3867 15.935,30.0534 21.5,27.5 Z M 52.5,34.5 C 56.4234,35.7951 60.0901,37.6284 63.5,40C 59.2505,42.3742 55.0838,44.8742 51,47.5C 51.3471,43.2226 51.8471,38.8893 52.5,34.5 Z M 80.5,34.5 C 81.7498,34.5774 82.5831,35.244 83,36.5C 84.2179,41.4555 84.5512,46.4555 84,51.5C 79.5,47.6667 75,43.8333 70.5,40C 74.0561,38.3924 77.3894,36.5591 80.5,34.5 Z M 66.5,41.5 C 73.0822,45.9082 79.2489,50.9082 85,56.5C 85.2162,63.8916 84.5495,71.2249 83,78.5C 77.6463,82.3443 71.9796,85.6777 66,88.5C 60.0095,85.3378 54.3428,81.6711 49,77.5C 48.3768,69.135 48.7102,60.8016 50,52.5C 55.3075,48.4378 60.8075,44.7711 66.5,41.5 Z M 44.5,54.5 C 45.6491,54.7911 46.3158,55.6244 46.5,57C 45.7793,62.8092 45.2793,68.6426 45,74.5C 40.6596,70.9905 36.4929,67.3238 32.5,63.5C 36.5681,60.4793 40.5681,57.4793 44.5,54.5 Z M 88.5,59.5 C 91.5057,62.1731 94.5057,64.8398 97.5,67.5C 94.3705,71.0441 90.7038,73.5441 86.5,75C 87.695,69.9413 88.3617,64.7747 88.5,59.5 Z M 28.5,65.5 C 34.3144,70.1468 39.9811,74.9801 45.5,80C 46.1733,86.0887 47.1733,92.0887 48.5,98C 39.3552,103.938 29.3552,106.605 18.5,106C 12.2138,103.318 12.0471,100.484 18,97.5C 21.4087,92.807 22.0753,87.807 20,82.5C 18.4002,81.1341 16.5668,80.1341 14.5,79.5C 18.8814,74.4519 23.5481,69.7852 28.5,65.5 Z M 98.5,70.5 C 102.302,71.7786 105.469,74.1119 108,77.5C 107.561,80.4297 107.061,83.4297 106.5,86.5C 107.239,93.5579 111.239,96.8912 118.5,96.5C 117.976,102.185 114.809,104.851 109,104.5C 99.8985,103.075 91.0652,100.742 82.5,97.5C 83.7278,91.8614 84.8945,86.1947 86,80.5C 90.6431,77.6826 94.8098,74.3492 98.5,70.5 Z M 112.5,79.5 C 119.1,79.1253 123.1,82.1253 124.5,88.5C 124.61,90.374 123.944,91.874 122.5,93C 110.595,94.2992 107.262,89.7992 112.5,79.5 Z M 49.5,82.5 C 53.9507,85.1106 58.2841,87.9439 62.5,91C 58.8562,93.6559 54.8562,95.4893 50.5,96.5C 50.1667,91.8333 49.8333,87.1667 49.5,82.5 Z M 11.5,83.5 C 17.8704,83.5607 19.7037,86.5607 17,92.5C 13.6056,98.5964 8.9389,99.9297 3,96.5C 2.01873,89.6516 4.85207,85.3182 11.5,83.5 Z M 80.5,83.5 C 81.2389,83.369 81.9056,83.5357 82.5,84C 81.5703,87.8805 80.4036,91.7138 79,95.5C 76.2458,93.8726 73.4125,92.3726 70.5,91C 74.0804,88.7226 77.4137,86.2226 80.5,83.5 Z M 65.5,92.5 C 69.3283,94.5788 73.3283,96.4121 77.5,98C 76.9038,106.43 73.9038,114.097 68.5,121C 65.3946,123.964 62.2279,124.13 59,121.5C 55.7011,114.935 53.2011,108.101 51.5,101C 56.3968,98.3922 61.0635,95.5589 65.5,92.5 Z"/></g>
</svg>
