<?xml version="1.0" encoding="UTF-8"?>
<!DOCTYPE svg PUBLIC "-//W3C//DTD SVG 1.1//EN" "http://www.w3.org/Graphics/SVG/1.1/DTD/svg11.dtd">
<svg xmlns="http://www.w3.org/2000/svg" version="1.1" width="128px" height="128px" style="shape-rendering:geometricPrecision; text-rendering:geometricPrecision; image-rendering:optimizeQuality; fill-rule:evenodd; clip-rule:evenodd" xmlns:xlink="http://www.w3.org/1999/xlink">
<g><path style="opacity:0.799" fill="#000000" d="M 56.5,24.5 C 75.2586,27.7516 93.7586,32.0849 112,37.5C 112.667,38.5 112.667,39.5 112,40.5C 109.667,41.4129 107.834,42.9129 106.5,45C 110.5,46.3333 114.5,47.6667 118.5,49C 121.865,53.8195 122.365,58.9861 120,64.5C 116.333,66.8333 112.667,69.1667 109,71.5C 108.059,75.4507 109.226,78.6173 112.5,81C 112.333,81.5 112.167,82 112,82.5C 95.7188,90.6391 79.0521,97.9724 62,104.5C 44.4818,100.412 26.9818,96.2454 9.5,92C 4.16667,86 4.16667,80 9.5,74C 13.3333,72.4479 16.9999,70.6146 20.5,68.5C 20.0233,67.5224 19.3567,66.6891 18.5,66C 6.74077,65.3072 2.90744,59.4739 7,48.5C 10.0808,45.7069 13.5808,43.5403 17.5,42C 30.8269,36.6655 43.8269,30.8322 56.5,24.5 Z M 58.5,29.5 C 72.7046,32.3845 86.7046,35.8845 100.5,40C 87.7103,46.0634 74.7103,51.5634 61.5,56.5C 47.7986,53.4913 34.1319,50.3247 20.5,47C 33.1073,40.8616 45.774,35.0283 58.5,29.5 Z M 98.5,54.5 C 101.768,53.1451 102.102,51.3117 99.5,49C 97.2433,49.4371 94.91,49.9371 92.5,50.5C 92.9111,53.2763 92.0777,53.943 90,52.5C 83.2239,55.4714 76.3905,58.3047 69.5,61C 67.9907,64.6693 69.3241,66.1693 73.5,65.5C 69.7985,67.5805 65.9651,69.5805 62,71.5C 56.4941,69.9143 50.9941,68.2476 45.5,66.5C 46.325,65.6143 47.325,65.281 48.5,65.5C 48.071,60.5342 45.9043,59.5342 42,62.5C 41.6667,65.5 41.3333,68.5 41,71.5C 39.3333,70.1667 37.6667,70.1667 36,71.5C 35.8333,70.1667 35.6667,68.8333 35.5,67.5C 36.8868,64.6352 37.8868,61.6352 38.5,58.5C 36.4727,58.3379 34.4727,58.5045 32.5,59C 31.6198,60.3561 31.2865,61.8561 31.5,63.5C 25.0668,62.4752 18.7334,60.9752 12.5,59C 10.5561,56.8471 10.0561,54.3471 11,51.5C 11.7247,50.9415 12.5581,50.6082 13.5,50.5C 29.8808,54.3452 46.2141,58.3452 62.5,62.5C 75.1667,56.8333 87.8333,51.1667 100.5,45.5C 101.426,48.044 102.426,50.544 103.5,53C 101.975,54.0086 100.308,54.5086 98.5,54.5 Z M 114.5,53.5 C 117.072,56.1407 117.072,58.974 114.5,62C 99.3773,68.9789 84.2107,75.8122 69,82.5C 68.7132,80.1093 68.2132,77.7759 67.5,75.5C 67.7093,74.914 68.0426,74.414 68.5,74C 84.0414,67.3911 99.3747,60.5578 114.5,53.5 Z M 96.5,55.5 C 94.5739,57.2927 92.2406,58.2927 89.5,58.5C 91.1852,56.1824 93.5185,55.1824 96.5,55.5 Z M 87.5,59.5 C 86.2196,60.9313 84.5529,61.5979 82.5,61.5C 83.7804,60.0687 85.4471,59.4021 87.5,59.5 Z M 78.5,63.5 C 77.2196,64.9313 75.5529,65.5979 73.5,65.5C 74.7804,64.0687 76.4471,63.4021 78.5,63.5 Z M 31.5,77.5 C 29.0733,77.477 26.74,76.977 24.5,76C 26.2464,73.6262 26.5798,71.1262 25.5,68.5C 27.326,68.0798 29.326,68.0798 31.5,68.5C 31.5,71.5 31.5,74.5 31.5,77.5 Z M 45.5,72.5 C 51.2888,73.5306 56.9554,75.0306 62.5,77C 63.8302,79.8773 63.6636,82.7107 62,85.5C 56.2211,83.93 50.3877,82.43 44.5,81C 45.4438,78.2809 45.7771,75.4475 45.5,72.5 Z M 73.5,86.5 C 71.7703,87.3786 70.437,88.712 69.5,90.5C 69.7466,93.0815 71.08,93.9149 73.5,93C 81.8862,89.0018 90.8862,85.0018 100.5,81C 102.009,77.3307 100.676,75.8307 96.5,76.5C 98.5191,75.0666 100.686,73.7332 103,72.5C 103.502,75.5131 104.002,78.5131 104.5,81.5C 90.1922,87.0678 76.0256,93.0678 62,99.5C 45.1456,95.4114 28.3123,91.2447 11.5,87C 9.90267,83.7479 10.4027,80.9146 13,78.5C 29.4529,82.6906 45.9529,86.6906 62.5,90.5C 66.0851,88.871 69.7518,87.5377 73.5,86.5 Z M 40.5,79.5 C 37.2186,79.5797 34.2186,78.913 31.5,77.5C 34.0444,77.8957 36.2111,77.229 38,75.5C 38.6622,76.9839 39.4955,78.3172 40.5,79.5 Z M 96.5,76.5 C 91.563,79.5956 86.2296,81.9289 80.5,83.5C 85.437,80.4044 90.7704,78.0711 96.5,76.5 Z M 80.5,83.5 C 78.8564,84.3164 77.6897,85.6498 77,87.5C 75.9887,86.6634 74.8221,86.33 73.5,86.5C 75.4261,84.7073 77.7594,83.7073 80.5,83.5 Z"/></g>
<g><path style="opacity:0.766" fill="#000000" d="M 59.5,33.5 C 66.2632,34.0229 72.9298,35.1896 79.5,37C 82.0806,38.8407 82.0806,40.6741 79.5,42.5C 73.5852,40.688 67.5852,39.188 61.5,38C 59.8934,36.951 59.2267,35.451 59.5,33.5 Z"/></g>
<g><path style="opacity:0.733" fill="#000000" d="M 98.5,54.5 C 97.5084,54.3284 96.8417,54.6618 96.5,55.5C 93.5185,55.1824 91.1852,56.1824 89.5,58.5C 88.5084,58.3284 87.8417,58.6618 87.5,59.5C 85.4471,59.4021 83.7804,60.0687 82.5,61.5C 81.5084,61.3284 80.8417,61.6618 80.5,62.5C 79.5084,62.3284 78.8417,62.6618 78.5,63.5C 76.4471,63.4021 74.7804,64.0687 73.5,65.5C 69.3241,66.1693 67.9907,64.6693 69.5,61C 76.3905,58.3047 83.2239,55.4714 90,52.5C 92.0777,53.943 92.9111,53.2763 92.5,50.5C 94.91,49.9371 97.2433,49.4371 99.5,49C 102.102,51.3117 101.768,53.1451 98.5,54.5 Z"/></g>
<g><path style="opacity:0.734" fill="#000000" d="M 96.5,76.5 C 100.676,75.8307 102.009,77.3307 100.5,81C 90.8862,85.0018 81.8862,89.0018 73.5,93C 71.08,93.9149 69.7466,93.0815 69.5,90.5C 70.437,88.712 71.7703,87.3786 73.5,86.5C 74.8221,86.33 75.9887,86.6634 77,87.5C 77.6897,85.6498 78.8564,84.3164 80.5,83.5C 86.2296,81.9289 91.563,79.5956 96.5,76.5 Z"/></g>
<g><path style="opacity:0.763" fill="#000000" d="M 16.5,81.5 C 25.1361,83.45 33.6361,85.7833 42,88.5C 42.8542,90.6073 42.1875,91.9407 40,92.5C 32.5324,90.5397 25.0324,88.7064 17.5,87C 15.1904,85.5415 14.8571,83.7081 16.5,81.5 Z"/></g>
<g><path style="opacity:0.71" fill="#000000" d="M 45.5,88.5 C 47.4817,88.9954 49.4817,89.4954 51.5,90C 55.1425,91.5781 55.3092,93.4115 52,95.5C 50.2663,94.7511 48.433,94.2511 46.5,94C 44.1904,92.5415 43.8571,90.7081 45.5,88.5 Z"/></g>
</svg>
