<?xml version="1.0" encoding="UTF-8"?>
<!DOCTYPE svg PUBLIC "-//W3C//DTD SVG 1.1//EN" "http://www.w3.org/Graphics/SVG/1.1/DTD/svg11.dtd">
<svg xmlns="http://www.w3.org/2000/svg" version="1.1" width="128px" height="128px" style="shape-rendering:geometricPrecision; text-rendering:geometricPrecision; image-rendering:optimizeQuality; fill-rule:evenodd; clip-rule:evenodd" xmlns:xlink="http://www.w3.org/1999/xlink">
<g><path style="opacity:0.522" fill="#000000" d="M 57.5,-0.5 C 58.8333,-0.5 60.1667,-0.5 61.5,-0.5C 61.38,0.586173 60.7133,1.25284 59.5,1.5C 58.2867,1.25284 57.62,0.586173 57.5,-0.5 Z"/></g>
<g><path style="opacity:0.591" fill="#000000" d="M 65.5,-0.5 C 66.8333,-0.5 68.1667,-0.5 69.5,-0.5C 67.9982,2.02195 66.6649,2.02195 65.5,-0.5 Z"/></g>
<g><path style="opacity:0.413" fill="#000000" d="M 49.5,0.5 C 50.9778,0.237978 52.3112,0.571312 53.5,1.5C 51.5365,4.1939 50.2032,3.86057 49.5,0.5 Z"/></g>
<g><path style="opacity:0.509" fill="#000000" d="M 73.5,0.5 C 74.5,0.5 75.5,0.5 76.5,0.5C 75.7542,4.30997 74.7542,4.30997 73.5,0.5 Z"/></g>
<g><path style="opacity:0.409" fill="#000000" d="M 43.5,2.5 C 44.9953,2.41483 45.9953,3.08149 46.5,4.5C 45.1667,5.83333 43.8333,5.83333 42.5,4.5C 42.8627,3.81654 43.1961,3.14987 43.5,2.5 Z"/></g>
<g><path style="opacity:0.41" fill="#000000" d="M 81.5,2.5 C 82.9953,2.41483 83.9953,3.08149 84.5,4.5C 83.1667,5.83333 81.8333,5.83333 80.5,4.5C 80.8627,3.81654 81.1961,3.14987 81.5,2.5 Z"/></g>
<g><path style="opacity:0.643" fill="#000000" d="M 78.5,127.5 C 68.5,127.5 58.5,127.5 48.5,127.5C 48.5,125.833 48.5,124.167 48.5,122.5C 46.5,122.5 44.5,122.5 42.5,122.5C 44.1623,108.978 41.6623,96.3117 35,84.5C 18.3105,67.5161 14.9772,48.1828 25,26.5C 39.6139,6.05079 58.7805,0.217453 82.5,9C 104.24,21.6563 111.74,40.1563 105,64.5C 101.878,71.9548 97.545,78.6215 92,84.5C 85.3377,96.3117 82.8377,108.978 84.5,122.5C 82.5,122.5 80.5,122.5 78.5,122.5C 78.5,124.167 78.5,125.833 78.5,127.5 Z M 58.5,7.5 C 80.0879,6.93873 94.9212,16.6054 103,36.5C 105.951,48.3712 104.617,59.7045 99,70.5C 90.5953,79.6421 85.0953,90.3088 82.5,102.5C 78.5,102.5 74.5,102.5 70.5,102.5C 70.5,89.8333 70.5,77.1667 70.5,64.5C 80.6518,66.506 85.1518,62.506 84,52.5C 78.9244,47.244 73.9244,47.244 69,52.5C 68.5017,55.8168 68.335,59.1501 68.5,62.5C 65.1667,62.5 61.8333,62.5 58.5,62.5C 59.5386,57.1508 58.2053,52.6508 54.5,49C 45.2803,47.5529 41.447,51.3862 43,60.5C 46.6508,64.2053 51.1508,65.5386 56.5,64.5C 56.5,77.1667 56.5,89.8333 56.5,102.5C 52.5,102.5 48.5,102.5 44.5,102.5C 43.7109,97.2983 42.2109,92.2983 40,87.5C 34.7511,80.004 29.7511,72.3374 25,64.5C 17.6772,34.4638 28.8439,15.4638 58.5,7.5 Z M 47.5,51.5 C 54.9131,51.2604 57.9131,54.927 56.5,62.5C 50.8223,63.6614 46.8223,61.6614 44.5,56.5C 45.2599,54.6396 46.2599,52.973 47.5,51.5 Z M 73.5,51.5 C 78.0927,50.4183 81.0927,52.085 82.5,56.5C 80.1777,61.6614 76.1777,63.6614 70.5,62.5C 69.9439,58.3344 70.9439,54.6677 73.5,51.5 Z M 58.5,64.5 C 61.8333,64.5 65.1667,64.5 68.5,64.5C 68.5,77.1667 68.5,89.8333 68.5,102.5C 65.1667,102.5 61.8333,102.5 58.5,102.5C 58.5,89.8333 58.5,77.1667 58.5,64.5 Z M 45.5,105.5 C 57.5,105.5 69.5,105.5 81.5,105.5C 81.5,107.167 81.5,108.833 81.5,110.5C 69.5,110.5 57.5,110.5 45.5,110.5C 45.5,108.833 45.5,107.167 45.5,105.5 Z M 45.5,113.5 C 57.5,113.5 69.5,113.5 81.5,113.5C 81.5,115.5 81.5,117.5 81.5,119.5C 69.5,119.5 57.5,119.5 45.5,119.5C 45.5,117.5 45.5,115.5 45.5,113.5 Z M 51.5,122.5 C 59.5,122.5 67.5,122.5 75.5,122.5C 75.5,123.5 75.5,124.5 75.5,125.5C 67.5,125.5 59.5,125.5 51.5,125.5C 51.5,124.5 51.5,123.5 51.5,122.5 Z"/></g>
<g><path style="opacity:0.458" fill="#000000" d="M 36.5,6.5 C 40.0749,7.2068 40.2416,8.2068 37,9.5C 35.3167,8.82352 35.1501,7.82352 36.5,6.5 Z"/></g>
<g><path style="opacity:0.456" fill="#000000" d="M 87.5,6.5 C 91.1611,6.42571 91.8277,7.42571 89.5,9.5C 88.0815,8.99525 87.4148,7.99525 87.5,6.5 Z"/></g>
<g><path style="opacity:0.453" fill="#000000" d="M 30.5,10.5 C 33.1402,11.7936 33.1402,13.127 30.5,14.5C 29.3744,13.1916 29.3744,11.8583 30.5,10.5 Z"/></g>
<g><path style="opacity:0.34" fill="#000000" d="M 94.5,10.5 C 97.2748,10.8338 97.9415,12.1671 96.5,14.5C 93.841,13.8981 93.1744,12.5648 94.5,10.5 Z"/></g>
<g><path style="opacity:0.375" fill="#000000" d="M 24.5,16.5 C 27.8606,17.2032 28.1939,18.5365 25.5,20.5C 23.2997,19.6754 22.9663,18.3421 24.5,16.5 Z"/></g>
<g><path style="opacity:0.409" fill="#000000" d="M 100.5,16.5 C 103.428,17.637 103.762,18.9704 101.5,20.5C 99.3576,19.5629 99.0243,18.2296 100.5,16.5 Z"/></g>
<g><path style="opacity:0.407" fill="#000000" d="M 105.5,22.5 C 107.377,23.829 107.544,25.1623 106,26.5C 103.264,25.0674 103.098,23.7341 105.5,22.5 Z"/></g>
<g><path style="opacity:0.508" fill="#000000" d="M 20.5,23.5 C 22.0481,23.8212 22.7148,24.8212 22.5,26.5C 19.7524,26.5983 19.0857,25.5983 20.5,23.5 Z"/></g>
<g><path style="opacity:0.457" fill="#000000" d="M 16.5,30.5 C 17.5,30.5 18.5,30.5 19.5,30.5C 19.5,31.5 19.5,32.5 19.5,33.5C 18.5,33.5 17.5,33.5 16.5,33.5C 16.5,32.5 16.5,31.5 16.5,30.5 Z"/></g>
<g><path style="opacity:0.458" fill="#000000" d="M 107.5,30.5 C 108.5,30.5 109.5,30.5 110.5,30.5C 110.5,31.5 110.5,32.5 110.5,33.5C 109.5,33.5 108.5,33.5 107.5,33.5C 107.5,32.5 107.5,31.5 107.5,30.5 Z"/></g>
<g><path style="opacity:0.412" fill="#000000" d="M 14.5,37.5 C 17.8606,38.2032 18.1939,39.5365 15.5,41.5C 14.5713,40.3112 14.238,38.9778 14.5,37.5 Z"/></g>
<g><path style="opacity:0.413" fill="#000000" d="M 110.5,37.5 C 111.586,37.62 112.253,38.2867 112.5,39.5C 111.696,41.9573 110.696,41.9573 109.5,39.5C 109.863,38.8165 110.196,38.1499 110.5,37.5 Z"/></g>
<g><path style="opacity:0.345" fill="#000000" d="M 13.5,45.5 C 14.5,45.5 15.5,45.5 16.5,45.5C 16.5,46.8333 16.5,48.1667 16.5,49.5C 15.5,49.5 14.5,49.5 13.5,49.5C 13.5,48.1667 13.5,46.8333 13.5,45.5 Z"/></g>
<g><path style="opacity:0.343" fill="#000000" d="M 110.5,45.5 C 111.5,45.5 112.5,45.5 113.5,45.5C 113.5,46.8333 113.5,48.1667 113.5,49.5C 112.5,49.5 111.5,49.5 110.5,49.5C 110.5,48.1667 110.5,46.8333 110.5,45.5 Z"/></g>
<g><path style="opacity:0.413" fill="#000000" d="M 13.5,53.5 C 14.5,53.5 15.5,53.5 16.5,53.5C 15.5,58.8333 14.5,58.8333 13.5,53.5 Z"/></g>
<g><path style="opacity:0.458" fill="#000000" d="M 110.5,53.5 C 113.998,53.5653 114.498,54.8986 112,57.5C 110.812,56.4366 110.312,55.1033 110.5,53.5 Z"/></g>
<g><path style="opacity:0.46" fill="#000000" d="M 15.5,61.5 C 16.5,61.5 17.5,61.5 18.5,61.5C 18.5,62.5 18.5,63.5 18.5,64.5C 17.5,64.5 16.5,64.5 15.5,64.5C 15.5,63.5 15.5,62.5 15.5,61.5 Z"/></g>
<g><path style="opacity:0.456" fill="#000000" d="M 108.5,61.5 C 109.5,61.5 110.5,61.5 111.5,61.5C 111.5,62.5 111.5,63.5 111.5,64.5C 110.5,64.5 109.5,64.5 108.5,64.5C 108.5,63.5 108.5,62.5 108.5,61.5 Z"/></g>
<g><path style="opacity:0.453" fill="#000000" d="M 18.5,68.5 C 21.5688,68.963 22.0688,70.2963 20,72.5C 18.8118,71.4366 18.3118,70.1033 18.5,68.5 Z"/></g>
<g><path style="opacity:0.456" fill="#000000" d="M 106.5,68.5 C 108.97,69.3603 109.137,70.6936 107,72.5C 105.232,71.3181 105.065,69.9848 106.5,68.5 Z"/></g>
<g><path style="opacity:0.462" fill="#000000" d="M 22.5,75.5 C 25.5688,75.963 26.0688,77.2963 24,79.5C 22.8118,78.4366 22.3118,77.1033 22.5,75.5 Z"/></g>
<g><path style="opacity:0.507" fill="#000000" d="M 102.5,75.5 C 104.048,75.8212 104.715,76.8212 104.5,78.5C 101.752,78.5983 101.086,77.5983 102.5,75.5 Z"/></g>
<g><path style="opacity:0.457" fill="#000000" d="M 27.5,81.5 C 30.5688,81.963 31.0688,83.2963 29,85.5C 27.8118,84.4366 27.3118,83.1033 27.5,81.5 Z"/></g>
<g><path style="opacity:0.411" fill="#000000" d="M 97.5,81.5 C 101.337,82.203 101.503,83.5364 98,85.5C 96.2317,84.3181 96.0651,82.9848 97.5,81.5 Z"/></g>
</svg>
