<?xml version="1.0" standalone="no"?>
<!DOCTYPE svg PUBLIC "-//W3C//DTD SVG 20010904//EN"
 "http://www.w3.org/TR/2001/REC-SVG-20010904/DTD/svg10.dtd">
<svg version="1.0" xmlns="http://www.w3.org/2000/svg"
 width="128.000000pt" height="128.000000pt" viewBox="0 0 128.000000 128.000000"
 preserveAspectRatio="xMidYMid meet">

<g transform="translate(0.000000,128.000000) scale(0.100000,-0.100000)"
fill="#000000" stroke="none">
<path d="M216 1044 c-14 -13 -16 -58 -16 -332 l-1 -317 -59 -79 c-62 -82 -72
-113 -44 -140 14 -14 77 -16 544 -16 467 0 530 2 544 16 28 27 18 58 -44 140
l-59 79 -1 317 c0 274 -2 319 -16 332 -13 14 -66 16 -424 16 -358 0 -411 -2
-424 -16z m842 -326 l2 -318 -420 0 -420 0 0 313 c0 173 3 317 7 320 4 4 191
6 417 5 l411 -3 3 -317z m62 -400 c25 -34 47 -65 48 -70 2 -4 -84 -8 -192 -8
-119 0 -197 -4 -201 -10 -8 -13 -262 -13 -270 0 -4 6 -82 10 -201 10 -108 0
-194 4 -192 8 2 5 23 36 48 70 l45 61 435 0 435 0 45 -61z m-615 -108 c8 -13
262 -13 270 0 4 6 84 10 206 10 186 0 200 -1 197 -17 -3 -17 -37 -18 -538 -18
-501 0 -535 1 -538 18 -3 16 11 17 197 17 122 0 202 -4 206 -10z"/>
<path d="M240 740 l0 -280 400 0 400 0 0 280 0 280 -400 0 -400 0 0 -280z
m780 0 l0 -260 -380 0 -380 0 0 260 0 260 380 0 380 0 0 -260z"/>
<path d="M216 326 c-14 -19 -26 -37 -26 -40 0 -3 203 -6 450 -6 248 0 450 3
450 6 0 3 -12 21 -26 40 l-26 34 -398 0 -398 0 -26 -34z m832 -6 c12 -20 10
-20 -408 -20 -418 0 -420 0 -408 20 12 19 24 20 408 20 384 0 396 -1 408 -20z"/>
</g>
</svg>
