<?xml version="1.0" standalone="no"?>
<!DOCTYPE svg PUBLIC "-//W3C//DTD SVG 20010904//EN"
 "http://www.w3.org/TR/2001/REC-SVG-20010904/DTD/svg10.dtd">
<svg version="1.0" xmlns="http://www.w3.org/2000/svg"
 width="128.000000pt" height="128.000000pt" viewBox="0 0 128.000000 128.000000"
 preserveAspectRatio="xMidYMid meet">

<g transform="translate(0.000000,128.000000) scale(0.100000,-0.100000)"
fill="#000000" stroke="none">
<path d="M980 1175 c-28 -28 -53 -45 -68 -45 -15 0 -26 -7 -29 -19 -3 -11 -15
-21 -27 -23 -11 -2 -25 -13 -31 -25 -5 -12 -18 -24 -28 -27 -15 -4 -18 -10
-12 -34 5 -25 3 -31 -15 -37 -12 -4 -138 -122 -280 -262 -256 -252 -259 -255
-324 -371 -36 -64 -88 -150 -115 -191 -28 -41 -48 -78 -46 -81 9 -14 137 14
295 66 l165 54 271 278 c268 274 272 278 308 274 22 -3 36 0 36 7 0 6 14 17
30 26 17 9 30 21 30 29 0 7 11 23 25 36 14 13 25 34 25 47 0 15 18 43 46 73
39 42 45 53 39 78 -9 42 -65 104 -136 151 -80 53 -103 53 -159 -4z m199 -50
c43 -40 90 -105 76 -105 -14 0 -85 41 -115 67 -34 28 -90 100 -90 115 0 16 82
-33 129 -77z m-66 -39 c23 -23 63 -52 90 -64 26 -12 47 -25 47 -30 0 -4 -16
-23 -34 -43 l-33 -36 -113 109 -112 109 39 34 38 33 18 -35 c10 -19 37 -54 60
-77z m-44 -90 c82 -83 93 -97 87 -120 -7 -30 -22 -34 -30 -8 -7 21 -211 212
-226 212 -17 0 -11 18 8 22 35 8 70 -15 161 -106z m-94 -6 c137 -121 155 -149
122 -194 -12 -16 -17 -12 -59 41 -26 32 -78 91 -117 132 -39 40 -68 77 -65 82
13 21 45 5 119 -61z m-119 11 c35 -21 194 -207 194 -227 0 -45 -54 -17 -141
73 -86 89 -109 121 -109 149 0 29 15 30 56 5z m-41 -68 c13 -16 25 -33 25 -40
0 -6 -48 -56 -107 -112 -60 -55 -178 -174 -263 -264 l-155 -164 -17 27 c-9 16
-26 31 -38 35 -19 6 2 31 187 218 183 186 331 327 341 327 1 0 14 -12 27 -27z
m104 -130 c0 -5 -25 -29 -56 -55 -55 -47 -58 -48 -121 -48 l-65 0 23 25 c18
20 34 25 74 27 l51 1 -43 4 c-43 4 -44 5 -26 24 12 14 32 19 73 21 l56 2 -48
3 c-41 4 -47 6 -37 19 7 8 27 15 44 15 24 1 26 3 8 6 -20 4 -21 7 -10 20 11
13 16 11 45 -21 18 -20 33 -39 32 -43z m57 -42 c19 -13 8 -27 -244 -278 l-264
-265 -21 20 c-12 11 -30 22 -40 24 -13 2 17 37 115 134 213 211 412 392 423
385 6 -3 19 -12 31 -20z m-196 -75 c0 -3 -92 -96 -205 -208 -113 -113 -205
-201 -205 -196 0 5 -12 20 -26 33 l-27 25 34 1 c25 1 28 3 11 6 -23 4 -23 5
-6 24 11 12 32 20 58 21 38 1 39 1 8 5 -33 4 -33 5 -16 24 12 13 32 19 63 20
l46 2 -39 6 -38 6 60 63 c57 60 61 62 113 64 l54 1 -49 6 -49 6 51 48 c48 44
54 47 107 47 30 0 55 -2 55 -4z m-499 -308 c6 -11 8 -31 5 -44 -6 -21 -3 -24
18 -24 28 0 49 -29 40 -54 -5 -12 2 -15 36 -13 31 1 46 -4 56 -18 8 -10 11
-22 7 -26 -5 -3 -60 -23 -123 -43 -63 -21 -121 -40 -127 -42 -7 -3 -17 5 -22
19 -5 13 -21 33 -34 44 l-25 19 25 40 c13 21 39 69 58 106 29 55 38 65 55 61
11 -3 25 -14 31 -25z m-133 -243 c16 -34 17 -31 -19 -44 -41 -14 -89 -14 -89
0 0 7 12 8 33 5 27 -5 29 -5 9 4 -30 13 -19 30 21 31 31 2 31 2 4 6 -32 5 -27
23 7 23 15 0 27 -9 34 -25z"/>
<path d="M643 633 c9 -2 23 -2 30 0 6 3 -1 5 -18 5 -16 0 -22 -2 -12 -5z"/>
</g>
</svg>
