<?xml version="1.0" standalone="no"?>
<!DOCTYPE svg PUBLIC "-//W3C//DTD SVG 20010904//EN"
 "http://www.w3.org/TR/2001/REC-SVG-20010904/DTD/svg10.dtd">
<svg version="1.0" xmlns="http://www.w3.org/2000/svg"
 width="128.000000pt" height="128.000000pt" viewBox="0 0 128.000000 128.000000"
 preserveAspectRatio="xMidYMid meet">

<g transform="translate(0.000000,128.000000) scale(0.100000,-0.100000)"
fill="#000000" stroke="none">
<path d="M361 1269 c-76 -15 -168 -65 -227 -123 -221 -221 -153 -589 133 -724
73 -34 84 -36 178 -36 103 -1 155 12 233 57 l33 20 30 -29 c19 -19 26 -31 19
-38 -5 -5 -10 -17 -10 -26 0 -9 78 -93 173 -187 143 -143 178 -172 209 -178
82 -15 158 61 143 143 -5 31 -35 66 -185 216 -171 171 -180 179 -198 163 -17
-16 -20 -15 -46 12 l-28 29 20 39 c38 69 53 116 59 187 24 292 -246 532 -536
475z m171 -50 c208 -44 347 -249 309 -455 -16 -86 -51 -155 -111 -214 -155
-156 -405 -156 -560 0 -219 218 -115 592 185 666 65 16 111 17 177 3z m291
-761 c-16 -18 -17 -17 -45 9 -26 25 -27 28 -11 45 16 18 17 17 45 -9 26 -25
27 -28 11 -45z m125 -21 l32 -33 -53 -52 -53 -52 -34 35 -34 35 49 50 c27 28
52 50 55 50 3 0 20 -15 38 -33z m282 -311 c0 -35 -41 -76 -76 -76 -21 0 -52
24 -136 107 l-108 107 52 53 53 54 107 -109 c84 -84 108 -115 108 -136z"/>
<path d="M367 1170 c-99 -25 -191 -103 -235 -198 -22 -48 -27 -71 -27 -142 0
-104 29 -174 100 -245 71 -71 141 -100 245 -100 104 0 174 29 245 100 71 71
100 141 100 245 0 71 -5 94 -27 142 -33 72 -103 142 -173 174 -61 28 -167 39
-228 24z m205 -68 c59 -26 124 -91 151 -151 30 -64 30 -178 0 -242 -27 -60
-92 -125 -152 -152 -64 -30 -178 -30 -242 0 -129 59 -202 206 -169 342 43 180
242 278 412 203z"/>
<path d="M363 1064 c-92 -33 -196 -184 -127 -184 8 0 27 22 44 48 32 52 83 87
146 100 29 6 39 13 39 27 0 26 -44 30 -102 9z"/>
<path d="M211 817 c-14 -17 3 -41 23 -34 9 4 16 13 16 21 0 19 -26 28 -39 13z"/>
</g>
</svg>
