<?xml version="1.0" standalone="no"?>
<!DOCTYPE svg PUBLIC "-//W3C//DTD SVG 20010904//EN"
 "http://www.w3.org/TR/2001/REC-SVG-20010904/DTD/svg10.dtd">
<svg version="1.0" xmlns="http://www.w3.org/2000/svg"
 width="128.000000pt" height="128.000000pt" viewBox="0 0 128.000000 128.000000"
 preserveAspectRatio="xMidYMid meet">

<g transform="translate(0.000000,128.000000) scale(0.100000,-0.100000)"
fill="#000000" stroke="none">
<path d="M995 1259 c-15 -16 -26 -19 -56 -14 -30 5 -42 2 -58 -14 -23 -23 -27
-51 -9 -69 8 -8 8 -15 -2 -27 -17 -21 -23 -20 -97 17 -126 62 -296 46 -408
-39 -53 -41 -118 -119 -112 -136 8 -25 27 -15 63 35 l38 53 6 -30 c4 -16 12
-40 18 -52 20 -36 14 -72 -15 -98 -16 -14 -38 -34 -50 -45 -16 -13 -23 -31
-23 -54 0 -19 -9 -44 -19 -57 -18 -22 -20 -23 -27 -6 -4 11 -4 57 -1 103 6 83
-3 112 -22 75 -34 -63 -20 -207 30 -300 35 -65 27 -81 -37 -81 -50 0 -70 -23
-61 -70 5 -21 0 -33 -19 -50 -29 -28 -31 -61 -6 -83 26 -24 56 -21 88 7 l28
23 40 -28 c32 -21 44 -25 55 -16 11 10 9 15 -15 32 -50 35 -134 117 -134 131
0 25 20 24 42 -2 38 -44 144 -114 205 -136 169 -59 373 -16 502 105 52 49 110
144 132 217 25 82 24 225 -1 225 -12 0 -15 -17 -17 -83 -2 -106 -31 -193 -87
-270 -51 -68 -94 -103 -184 -145 -63 -30 -73 -32 -182 -32 -109 0 -118 2 -180
32 -96 47 -98 48 -77 71 16 18 19 17 89 -17 68 -34 77 -36 173 -36 93 0 105 2
165 32 85 41 155 111 194 193 29 60 31 73 31 170 0 98 -2 110 -33 174 -30 63
-31 71 -17 85 15 15 18 14 35 -9 11 -14 27 -44 36 -67 16 -40 36 -54 48 -35
11 18 -54 131 -109 190 -42 46 -55 66 -47 74 16 16 53 -11 103 -74 174 -220
158 -517 -37 -713 -130 -130 -326 -185 -497 -140 -72 19 -87 19 -87 0 0 -14
83 -45 124 -45 41 0 44 -13 19 -67 l-24 -53 -69 0 c-59 0 -72 -3 -90 -22 -23
-25 -35 -61 -25 -77 9 -15 621 -15 630 0 10 16 -2 52 -25 77 -18 19 -31 22
-90 22 l-69 0 -25 56 c-14 31 -26 60 -26 64 0 4 15 11 34 14 19 4 67 23 107
43 142 71 257 219 295 379 32 137 1 317 -75 429 -17 25 -31 48 -31 51 0 3 9
17 20 31 25 32 26 65 2 86 -25 23 -55 21 -77 -4z m55 -32 c0 -8 -8 -21 -18
-30 -14 -13 -21 -14 -30 -5 -9 9 -8 16 5 30 19 21 43 24 43 5z m-313 -99 c79
-29 172 -121 200 -198 25 -67 38 -153 26 -175 -8 -14 -12 -14 -36 5 -15 12
-34 36 -42 54 -18 37 -51 56 -96 56 -34 0 -79 39 -79 68 0 10 5 33 11 51 9 25
8 36 -5 56 -14 21 -24 25 -65 25 -50 0 -91 22 -111 61 -10 18 -7 19 64 19 53
0 93 -7 133 -22z m-222 -27 c28 -42 87 -73 133 -69 34 2 37 1 34 -22 -10 -85
-7 -110 19 -136 17 -16 47 -31 80 -38 48 -11 57 -17 78 -55 14 -25 37 -49 57
-59 19 -8 34 -23 34 -31 -1 -27 -36 -96 -69 -133 -32 -36 -32 -36 -61 -20 -24
14 -32 14 -53 3 -14 -8 -33 -11 -41 -8 -19 7 -36 47 -36 82 0 15 -10 31 -25
41 -22 15 -28 15 -74 -1 -70 -23 -99 -49 -112 -100 -6 -24 -21 -53 -34 -65
l-22 -21 -49 39 c-27 22 -64 65 -83 96 l-34 57 31 32 c21 23 32 46 37 80 6 39
13 50 37 63 58 30 86 114 53 158 -30 40 -16 99 30 124 32 18 49 14 70 -17z
m411 8 c10 -17 -23 -46 -38 -31 -8 8 -8 15 2 27 15 18 26 19 36 4z m-270 -516
c15 -87 54 -118 115 -93 39 16 51 4 19 -20 -59 -44 -213 -65 -289 -39 -35 12
-38 21 -16 39 8 7 19 29 25 49 13 49 19 55 65 79 59 31 73 28 81 -15z m-342
-114 c-13 -15 -20 -16 -31 -8 -11 10 -11 15 3 30 13 15 20 16 31 8 11 -10 11
-15 -3 -30z m-120 -120 c-19 -21 -44 -25 -44 -7 0 6 7 20 17 30 12 14 19 15
30 7 11 -10 11 -15 -3 -30z m515 -201 l20 -48 -29 0 c-20 0 -30 -5 -30 -15 0
-12 19 -15 108 -15 96 0 111 -2 127 -20 18 -20 17 -20 -265 -20 -281 0 -283 0
-265 20 15 17 33 20 129 22 67 2 110 7 109 13 -1 6 -15 12 -31 15 l-30 5 23
52 c21 46 27 52 57 55 41 4 52 -5 77 -64z"/>
</g>
</svg>
